<svg width="123" height="9" viewBox="0 0 123 9" fill="none" xmlns="http://www.w3.org/2000/svg">
<path d="M56.9524 0.897217C57.1009 0.897304 57.2533 0.968006 57.3723 1.11694L59.5989 3.90405L59.5979 3.90601L59.6301 3.94605C59.8714 4.24816 59.8714 4.74251 59.6301 5.04468L57.3713 7.8728C57.2535 8.02021 57.0997 8.09155 56.9514 8.09155C56.803 8.09154 56.6505 8.02175 56.5315 7.8728C56.2902 7.57068 56.2902 7.07633 56.5315 6.77417L58.3206 4.53491L58.3528 4.49487L58.3206 4.45483L56.5315 2.21558C56.2901 1.91342 56.2901 1.4191 56.5315 1.11694C56.6507 0.967772 56.8037 0.897217 56.9524 0.897217Z" fill="white" stroke="white" stroke-width="0.12877"/>
<path d="M59.6472 0.897339C59.7958 0.897427 59.9481 0.968128 60.0671 1.11707L62.3123 3.92761L62.3123 3.92859L62.3259 3.94617C62.5673 4.24832 62.5673 4.74265 62.3259 5.0448L60.0671 7.87195C59.9479 8.01976 59.7946 8.09167 59.6462 8.09167C59.4978 8.09166 59.3454 8.02187 59.2263 7.87292C58.985 7.57081 58.9851 7.07646 59.2263 6.77429L61.0154 4.53503L61.0476 4.495L61.0154 4.45496L59.2263 2.2157C58.985 1.91354 58.985 1.41922 59.2263 1.11707C59.3455 0.967894 59.4985 0.897339 59.6472 0.897339Z" fill="white" stroke="white" stroke-width="0.12877"/>
<path d="M62.6504 0.897339C62.7989 0.897427 62.9513 0.968128 63.0703 1.11707L65.2969 3.90417L65.2959 3.90613L65.3281 3.94617C65.5694 4.24828 65.5694 4.74263 65.3281 5.0448L63.0693 7.87292C62.9515 8.02034 62.7977 8.09167 62.6494 8.09167C62.501 8.09166 62.3485 8.02187 62.2295 7.87292C61.9882 7.57081 61.9882 7.07646 62.2295 6.77429L64.0186 4.53503L64.0508 4.495L64.0186 4.45496L62.2295 2.2157C61.9881 1.91354 61.9881 1.41922 62.2295 1.11707C62.3486 0.967894 62.5017 0.897339 62.6504 0.897339Z" fill="white" stroke="white" stroke-width="0.12877"/>
<path d="M65.3457 0.897461C65.4942 0.897549 65.6466 0.96825 65.7656 1.11719L68.0107 3.92773L68.0107 3.92871L68.0244 3.94629C68.2658 4.24844 68.2658 4.74277 68.0244 5.04492L65.7656 7.87207C65.6464 8.01988 65.4931 8.0918 65.3447 8.0918C65.1963 8.09178 65.0438 8.022 64.9248 7.87305C64.6835 7.57093 64.6835 7.07658 64.9248 6.77441L66.7139 4.53516L66.7461 4.49512L66.7139 4.45508L64.9248 2.21582C64.6835 1.91367 64.6835 1.41934 64.9248 1.11719C65.044 0.968016 65.197 0.897461 65.3457 0.897461Z" fill="white" stroke="white" stroke-width="0.12877"/>
<path d="M69.9053 4.20947L122.245 4.20947" stroke="white" stroke-width="0.634938" stroke-linecap="round" stroke-linejoin="round"/>
<path d="M0.681396 4.20947L53.8655 4.20948" stroke="white" stroke-width="0.634938" stroke-linecap="round" stroke-linejoin="round"/>
</svg>
