<svg width="53" height="8" viewBox="0 0 53 8" fill="none" xmlns="http://www.w3.org/2000/svg">
<path d="M52 4.5C52.2761 4.5 52.5 4.27614 52.5 4C52.5 3.72386 52.2761 3.5 52 3.5L52 4L52 4.5ZM0.646446 3.64644C0.451183 3.8417 0.451183 4.15829 0.646446 4.35355L3.82843 7.53553C4.02369 7.73079 4.34027 7.73079 4.53553 7.53553C4.7308 7.34027 4.7308 7.02369 4.53553 6.82842L1.70711 4L4.53553 1.17157C4.7308 0.976307 4.7308 0.659724 4.53553 0.464462C4.34027 0.2692 4.02369 0.2692 3.82843 0.464462L0.646446 3.64644ZM52 4L52 3.5L1 3.5L1 4L1 4.5L52 4.5L52 4Z" fill="#1A18BB"/>
</svg>
