<svg width="50" height="51" viewBox="0 0 50 51" fill="none" xmlns="http://www.w3.org/2000/svg">
<circle cx="25" cy="25.6853" r="24" fill="currentColor" stroke="#D4C47E" stroke-width="2"/>
<path d="M26 11.6853C26 11.133 25.5523 10.6853 25 10.6853C24.4477 10.6853 24 11.133 24 11.6853L25 11.6853L26 11.6853ZM24.2929 39.3924C24.6834 39.7829 25.3166 39.7829 25.7071 39.3924L32.0711 33.0285C32.4616 32.6379 32.4616 32.0048 32.0711 31.6142C31.6805 31.2237 31.0474 31.2237 30.6569 31.6142L25 37.2711L19.3431 31.6142C18.9526 31.2237 18.3195 31.2237 17.9289 31.6142C17.5384 32.0048 17.5384 32.6379 17.9289 33.0284L24.2929 39.3924ZM25 11.6853L24 11.6853L24 38.6853L25 38.6853L26 38.6853L26 11.6853L25 11.6853Z" fill="white"/>
</svg>
