<svg width="123" height="123" viewBox="0 0 123 123" fill="none" xmlns="http://www.w3.org/2000/svg">
<path d="M61.1318 0.0292969C94.9149 0.0293372 122.305 29.4537 122.305 61.1895C122.305 92.9252 98.1323 118.997 67.2246 122.054C73.898 119.858 80.0066 117.007 82.7666 110.721C83.6852 108.645 84.3984 106.482 84.8721 104.286C85.8484 99.7467 87.6899 95.5947 91.3066 92.0645C92.5546 90.8494 93.5305 89.3951 94.5107 88.0029C96.8835 84.5921 97.6253 80.9129 96.4678 77.0283C95.6069 74.1779 94.6879 71.3029 93.6787 68.4854C92.2822 64.5678 92.134 60.6539 93.2627 56.6787C93.6458 55.3153 93.7371 53.8324 93.5889 52.4072C93.1728 48.4321 90.8284 45.227 87.5371 42.5C83.4424 39.118 80.3286 35.2616 78.6396 30.5449C78.0752 28.9467 76.5917 27.55 75.3477 26.1865C74.0995 24.7943 72.4969 23.6657 71.2529 22.2734C69.3251 20.1067 67.574 17.8533 65.7656 15.6289L65.498 15.748C65.6752 16.2506 65.8238 16.7865 66.001 17.2891C69.2635 26.2734 72.7315 35.2332 75.7881 44.2793C81.1268 59.9989 84.4186 75.9862 81.4814 92.3896C79.5206 103.335 76.0521 113.835 66.5898 122.111C64.7815 122.26 62.8825 122.35 61.1318 122.35C59.3811 122.35 57.634 122.26 55.9121 122.111C53.2428 119.557 50.6888 117.036 48.8516 114.161C43.0062 105.057 40.337 95.121 39.8633 84.7979C39.1218 69.1937 42.5903 54.1578 48.2256 39.3857C51.2204 31.5259 54.038 23.6328 56.9463 15.7441C56.7694 15.6865 56.6212 15.625 56.4443 15.5674C56.0572 16.0698 55.6738 16.5762 55.2578 17.0498C52.8851 19.7479 50.7758 22.6853 48.0488 25.0869C45.5896 27.2537 44.0153 29.5982 42.6807 32.3252C41.4078 34.9367 39.5088 37.3964 37.5811 39.7402C36.1269 41.4908 34.0503 42.8827 32.5098 44.6045C29.1566 48.3119 27.5878 52.4068 29.0996 57.1523C30.2571 60.802 29.9605 64.4517 28.6836 68.0684C27.9422 70.1444 27.2581 72.2209 26.459 74.2969C24.1439 80.3482 25.3305 85.8642 29.9277 90.8486C30.5827 91.5613 31.1424 92.3611 31.8262 93.0449C34.615 95.7761 36.0983 98.977 36.8975 102.479C37.227 103.904 37.7298 105.296 38.0264 106.721C39.773 114.848 46.1824 119.24 54.6641 121.967C23.9377 118.733 0 94.9432 0 61.1602C0.000242598 27.3774 27.3774 0.000242566 61.1602 0L61.1318 0.0292969ZM61.0781 12.3379C59.2697 13.0799 57.0742 21.623 57.0742 21.623C55.9784 24.9765 52.8638 34.3192 50.9648 39.2129C44.4687 55.9416 41.0868 72.9669 43.6367 90.6143C44.8519 99.0054 47.4346 107.075 52.6826 114.342C53.8113 115.882 55.0891 117.337 56.4814 118.672C60.2174 122.264 61.7869 122.35 65.4365 118.91C66.9482 117.485 68.3117 115.945 69.498 114.313C73.7987 108.443 76.2294 101.947 77.6836 95.1826C80.975 79.908 79.4341 64.8105 74.8369 49.9189C72.5548 42.504 69.7655 35.2083 67.125 27.8799L65.5527 23.1387L65.4365 23.167C65.346 22.9282 65.2595 22.7222 65.1689 22.4834V22.3926C65.0824 22.0385 64.9012 21.713 64.6953 21.4453C64.6377 21.3548 64.5752 21.24 64.5176 21.1494C62.7162 18.2811 61.0907 12.3836 61.0781 12.3379ZM60.9463 39.3486C60.9751 39.2869 61.0983 39.287 61.1602 39.3486C61.9593 40.3002 62.5694 40.852 62.9072 41.5234C68.6909 53.3708 71.418 65.6139 68.0195 78.3799C67.4717 80.4889 66.2442 82.6352 64.8066 84.4395C62.7552 87.0429 59.6035 86.9192 57.3379 84.4395C54.8251 81.6836 53.9397 78.3797 53.3877 75.043C51.5505 63.5005 53.997 52.4525 59.1709 41.7998C59.5375 41.0625 60.1513 40.3908 60.9463 39.3486Z" fill="white"/>
</svg>
