<svg width="403" height="125" viewBox="0 0 403 125" fill="currentColor" xmlns="http://www.w3.org/2000/svg">
<path fill-rule="evenodd" clip-rule="evenodd" d="M331.207 113.893C331.874 113.893 332.46 114.054 332.954 114.371C333.457 114.688 333.844 115.137 334.111 115.714C334.387 116.291 334.527 116.975 334.527 117.766C334.527 118.556 334.387 119.248 334.111 119.833C333.844 120.41 333.457 120.859 332.954 121.176C332.46 121.485 331.878 121.638 331.207 121.638C330.602 121.638 330.066 121.506 329.601 121.238C329.148 120.971 328.81 120.6 328.583 120.126V124.295H327.64V114.033H328.583V115.438C328.81 114.964 329.147 114.589 329.601 114.309C330.062 114.029 330.598 113.893 331.207 113.893ZM331.067 114.692C330.305 114.692 329.699 114.96 329.246 115.495C328.793 116.031 328.566 116.789 328.566 117.766C328.566 118.742 328.793 119.504 329.246 120.052C329.699 120.587 330.305 120.854 331.067 120.854C331.829 120.854 332.435 120.587 332.888 120.052C333.341 119.508 333.567 118.746 333.567 117.766C333.567 116.785 333.341 116.031 332.888 115.495C332.435 114.96 331.829 114.692 331.067 114.692Z" fill="currentColor"/>
<path d="M60.9463 39.3486C60.9751 39.2868 61.0993 39.2868 61.1611 39.3486C61.9601 40.3 62.5695 40.8521 62.9072 41.5234C68.6909 53.3708 71.418 65.6139 68.0195 78.3799C67.4716 80.4889 66.2442 82.6352 64.8066 84.4395C62.7552 87.0429 59.6036 86.9192 57.3379 84.4395C54.8251 81.6836 53.9397 78.3797 53.3877 75.043C51.5505 63.5005 53.997 52.4525 59.1709 41.7998C59.5375 41.0625 60.1513 40.3907 60.9463 39.3486Z" fill="currentColor"/>
<path fill-rule="evenodd" clip-rule="evenodd" d="M61.1318 0.0292969C94.9149 0.0293368 122.305 29.4537 122.305 61.1895C122.305 92.9252 98.1323 118.997 67.2246 122.054C73.898 119.858 80.0066 117.007 82.7666 110.721C83.6852 108.645 84.3984 106.482 84.8721 104.286C85.8484 99.7467 87.6899 95.5947 91.3066 92.0645C92.5546 90.8494 93.5305 89.3951 94.5107 88.0029C96.8835 84.5921 97.6253 80.9129 96.4678 77.0283C95.6069 74.1779 94.6879 71.3029 93.6787 68.4854C92.2822 64.5678 92.134 60.6539 93.2627 56.6787C93.6458 55.3153 93.7371 53.8324 93.5889 52.4072C93.1728 48.4321 90.8284 45.227 87.5371 42.5C83.4424 39.118 80.3286 35.2616 78.6396 30.5449C78.0752 28.9467 76.5917 27.55 75.3477 26.1865C74.0995 24.7943 72.4969 23.6657 71.2529 22.2734C69.3251 20.1067 67.574 17.8533 65.7656 15.6289L65.498 15.748C65.6752 16.2506 65.8238 16.7865 66.001 17.2891C69.2635 26.2734 72.7315 35.2332 75.7881 44.2793C81.1268 59.9989 84.4186 75.9862 81.4814 92.3896C79.5206 103.335 76.0521 113.835 66.5898 122.111C64.7815 122.26 62.8825 122.35 61.1318 122.35C59.3811 122.35 57.634 122.26 55.9121 122.111C53.2428 119.557 50.6888 117.036 48.8516 114.161C43.0062 105.057 40.337 95.121 39.8633 84.7979C39.1218 69.1937 42.5903 54.1578 48.2256 39.3857C51.2204 31.5259 54.038 23.6328 56.9463 15.7441C56.7694 15.6865 56.6212 15.625 56.4443 15.5674C56.0572 16.0698 55.6738 16.5762 55.2578 17.0498C52.8851 19.7479 50.7758 22.6853 48.0488 25.0869C45.5896 27.2537 44.0153 29.5982 42.6807 32.3252C41.4078 34.9367 39.5088 37.3964 37.5811 39.7402C36.1269 41.4908 34.0503 42.8827 32.5098 44.6045C29.1566 48.3119 27.5878 52.4068 29.0996 57.1523C30.2571 60.802 29.9605 64.4517 28.6836 68.0684C27.9422 70.1444 27.2581 72.2209 26.459 74.2969C24.1439 80.3482 25.3305 85.8642 29.9277 90.8486C30.5827 91.5613 31.1424 92.3611 31.8262 93.0449C34.615 95.7761 36.0983 98.977 36.8975 102.479C37.227 103.904 37.7298 105.296 38.0264 106.721C39.773 114.848 46.1824 119.24 54.6641 121.967C23.9377 118.733 0 94.9432 0 61.1602C0.00024322 27.3774 27.3774 0.000243188 61.1602 0L61.1318 0.0292969ZM61.0781 12.3379C59.2697 13.0799 57.0742 21.623 57.0742 21.623C55.9784 24.9765 52.8638 34.3192 50.9648 39.2129C44.4687 55.9416 41.0868 72.9669 43.6367 90.6143C44.8519 99.0054 47.4346 107.075 52.6826 114.342C53.8113 115.882 55.0891 117.337 56.4814 118.672C60.2174 122.264 61.7869 122.35 65.4365 118.91C66.9482 117.485 68.3117 115.945 69.498 114.313C73.7987 108.443 76.2294 101.947 77.6836 95.1826C80.975 79.908 79.4341 64.8105 74.8369 49.9189C72.5548 42.504 69.7655 35.2083 67.125 27.8799L65.5527 23.1387L65.4365 23.167C65.346 22.9282 65.2595 22.7222 65.1689 22.4834V22.3926C65.0824 22.0385 64.9012 21.713 64.6953 21.4453C64.6377 21.3548 64.5752 21.24 64.5176 21.1494C62.7162 18.2811 61.0907 12.3835 61.0781 12.3379Z" fill="currentColor"/>
<path d="M225.021 113.893C225.536 113.893 226.019 113.979 226.472 114.156C226.925 114.321 227.296 114.565 227.584 114.882L227.213 115.578C226.916 115.282 226.574 115.059 226.195 114.915C225.816 114.759 225.417 114.684 225.005 114.684C224.408 114.684 223.947 114.808 223.617 115.055C223.3 115.302 223.14 115.635 223.14 116.06C223.14 116.377 223.238 116.636 223.432 116.83C223.625 117.024 223.947 117.176 224.388 117.279L225.73 117.588C226.398 117.744 226.9 117.975 227.229 118.284C227.559 118.581 227.724 118.989 227.724 119.504C227.724 120.171 227.46 120.698 226.938 121.077C226.41 121.46 225.713 121.649 224.836 121.649L224.845 121.642C224.289 121.642 223.753 121.559 223.238 121.395C222.736 121.23 222.315 120.995 221.985 120.686L222.323 119.989C222.702 120.298 223.11 120.525 223.543 120.669C223.975 120.801 224.416 120.871 224.869 120.871C225.508 120.871 225.986 120.76 226.303 120.533C226.632 120.298 226.797 119.973 226.797 119.562C226.797 119.244 226.69 118.989 226.472 118.804C226.257 118.618 225.915 118.47 225.454 118.354L224.111 118.045C222.847 117.757 222.212 117.102 222.212 116.085C222.212 115.426 222.472 114.894 222.982 114.494C223.497 114.095 224.177 113.893 225.021 113.893Z" fill="currentColor"/>
<path d="M301.676 113.893C302.19 113.893 302.672 113.979 303.125 114.156C303.578 114.321 303.949 114.565 304.237 114.882L303.867 115.578C303.571 115.282 303.228 115.059 302.85 114.915C302.467 114.759 302.071 114.684 301.659 114.684C301.062 114.684 300.6 114.808 300.271 115.055C299.953 115.302 299.793 115.635 299.793 116.06C299.793 116.377 299.891 116.636 300.085 116.83C300.279 117.024 300.6 117.176 301.041 117.279L302.384 117.588C303.051 117.744 303.554 117.975 303.884 118.284C304.213 118.581 304.378 118.989 304.378 119.504C304.378 120.171 304.114 120.698 303.591 121.077C303.068 121.46 302.368 121.649 301.49 121.649L301.494 121.642C300.938 121.642 300.403 121.559 299.888 121.395C299.385 121.23 298.965 120.994 298.636 120.686L298.973 119.989C299.352 120.298 299.76 120.525 300.192 120.669C300.625 120.801 301.066 120.871 301.519 120.871C302.157 120.871 302.636 120.76 302.957 120.533C303.286 120.298 303.451 119.973 303.451 119.562C303.451 119.244 303.343 118.989 303.125 118.804C302.911 118.618 302.569 118.47 302.108 118.354L300.765 118.045C299.5 117.757 298.866 117.102 298.866 116.085C298.866 115.426 299.122 114.894 299.637 114.494C300.152 114.095 300.832 113.893 301.676 113.893Z" fill="currentColor"/>
<path d="M379.482 113.893C379.997 113.893 380.479 113.979 380.933 114.156C381.386 114.321 381.757 114.565 382.045 114.882L381.674 115.578C381.377 115.282 381.035 115.059 380.656 114.915C380.277 114.759 379.878 114.684 379.466 114.684C378.869 114.684 378.408 114.808 378.078 115.055C377.761 115.302 377.6 115.635 377.6 116.06C377.6 116.377 377.699 116.636 377.893 116.83C378.086 117.024 378.407 117.176 378.848 117.279L380.191 117.588C380.859 117.744 381.361 117.975 381.687 118.284C382.016 118.581 382.181 118.989 382.181 119.504C382.181 120.171 381.917 120.698 381.394 121.077C380.87 121.46 380.17 121.649 379.293 121.649L379.301 121.642C378.745 121.642 378.209 121.559 377.694 121.395C377.188 121.23 376.772 120.994 376.442 120.686L376.78 119.989C377.159 120.298 377.567 120.525 377.999 120.669C378.432 120.801 378.873 120.871 379.326 120.871C379.965 120.871 380.442 120.76 380.764 120.533C381.093 120.298 381.258 119.973 381.258 119.562C381.258 119.244 381.151 118.989 380.933 118.804C380.718 118.618 380.376 118.47 379.915 118.354L378.572 118.045C377.308 117.757 376.673 117.102 376.673 116.085C376.673 115.426 376.928 114.894 377.443 114.494C377.958 114.095 378.638 113.893 379.482 113.893Z" fill="currentColor"/>
<path d="M253.313 113.893C253.766 113.893 254.216 113.979 254.656 114.156C255.097 114.333 255.468 114.573 255.769 114.882L255.398 115.59C255.081 115.281 254.739 115.059 254.381 114.927C254.022 114.783 253.676 114.713 253.347 114.713C252.515 114.713 251.872 114.977 251.419 115.5C250.978 116.027 250.756 116.772 250.756 117.74C250.756 118.708 250.978 119.47 251.419 120.026C251.872 120.57 252.515 120.847 253.347 120.847C253.676 120.847 254.022 120.78 254.381 120.645C254.739 120.5 255.081 120.274 255.398 119.965L255.769 120.674C255.472 120.97 255.093 121.209 254.641 121.382C254.2 121.555 253.754 121.646 253.313 121.646L253.31 121.642C252.58 121.642 251.95 121.481 251.427 121.164C250.904 120.835 250.496 120.377 250.208 119.788C249.928 119.191 249.792 118.502 249.792 117.72C249.792 116.538 250.101 115.602 250.719 114.927C251.349 114.239 252.21 113.893 253.313 113.893Z" fill="currentColor"/>
<path d="M364.847 113.893C365.3 113.893 365.749 113.979 366.189 114.156C366.63 114.329 367.001 114.573 367.302 114.882L366.931 115.59C366.614 115.281 366.271 115.059 365.913 114.927C365.555 114.783 365.208 114.713 364.879 114.713C364.047 114.713 363.4 114.977 362.951 115.5C362.511 116.027 362.288 116.773 362.288 117.74C362.288 118.708 362.511 119.47 362.951 120.026C363.404 120.57 364.047 120.847 364.879 120.847C365.208 120.847 365.555 120.78 365.913 120.645C366.276 120.5 366.613 120.274 366.931 119.965L367.302 120.674C367.005 120.97 366.626 121.209 366.173 121.382C365.732 121.555 365.287 121.645 364.847 121.646L364.842 121.642C364.113 121.642 363.483 121.481 362.96 121.164C362.437 120.835 362.029 120.377 361.74 119.788C361.464 119.191 361.324 118.502 361.324 117.72C361.324 116.538 361.633 115.602 362.251 114.927C362.877 114.239 363.743 113.893 364.847 113.893Z" fill="currentColor"/>
<path d="M169.278 114.029H171.7V114.787H169.278V118.894C169.278 119.524 169.406 120.002 169.665 120.332C169.92 120.661 170.349 120.826 170.946 120.826C171.123 120.826 171.292 120.806 171.457 120.765C171.622 120.723 171.766 120.678 171.89 120.624L172.075 121.365C171.964 121.435 171.782 121.497 171.535 121.551C171.288 121.612 171.058 121.642 170.84 121.642H170.835C170.003 121.642 169.373 121.415 168.953 120.962C168.541 120.509 168.335 119.862 168.335 119.018V114.787H166.852V114.029H168.335V111.714H169.278V114.029Z" fill="currentColor"/>
<path fill-rule="evenodd" clip-rule="evenodd" d="M176.166 113.889C177.163 113.889 177.941 114.215 178.497 114.861C179.053 115.508 179.329 116.402 179.329 117.53V117.963H173.57C173.603 118.89 173.854 119.607 174.328 120.109C174.81 120.604 175.482 120.851 176.335 120.851C176.796 120.851 177.228 120.781 177.632 120.637C178.044 120.493 178.444 120.249 178.835 119.911L179.206 120.62C178.877 120.937 178.456 121.193 177.941 121.378C177.426 121.551 176.903 121.642 176.367 121.642H176.363C175.21 121.642 174.3 121.304 173.633 120.624C172.974 119.936 172.644 118.992 172.644 117.798C172.644 117.028 172.792 116.348 173.093 115.759C173.393 115.17 173.801 114.712 174.328 114.383C174.864 114.053 175.478 113.889 176.166 113.889ZM176.178 114.646C175.395 114.647 174.782 114.894 174.341 115.389C173.908 115.871 173.657 116.5 173.583 117.271H178.477C178.456 116.447 178.25 115.804 177.858 115.343C177.467 114.882 176.907 114.646 176.178 114.646Z" fill="currentColor"/>
<path fill-rule="evenodd" clip-rule="evenodd" d="M201.459 113.893C202.365 113.893 203.032 114.124 203.465 114.589C203.906 115.05 204.128 115.763 204.128 116.719V121.518H203.234V120.175C203.028 120.636 202.715 120.999 202.291 121.254C201.879 121.509 201.397 121.642 200.841 121.642C200.334 121.642 199.885 121.542 199.481 121.349C199.09 121.155 198.777 120.888 198.538 120.546C198.312 120.208 198.2 119.824 198.2 119.404C198.2 118.849 198.34 118.416 198.616 118.107C198.896 117.79 199.362 117.564 200.021 117.428C200.681 117.296 201.587 117.226 202.74 117.226H203.218V116.67C203.218 115.982 203.078 115.479 202.802 115.17C202.526 114.853 202.081 114.692 201.476 114.692C201.022 114.692 200.585 114.758 200.165 114.894C199.753 115.025 199.325 115.24 198.884 115.528L198.514 114.804C198.905 114.528 199.366 114.305 199.901 114.141C200.437 113.976 200.956 113.893 201.459 113.893ZM202.757 117.918C201.83 117.918 201.104 117.959 200.581 118.041C200.066 118.123 199.708 118.268 199.502 118.474C199.296 118.68 199.193 118.964 199.193 119.322C199.193 119.784 199.354 120.163 199.671 120.451C199.988 120.739 200.42 120.882 200.967 120.883C201.407 120.882 201.793 120.78 202.122 120.574C202.46 120.36 202.728 120.064 202.926 119.693C203.119 119.323 203.218 118.902 203.218 118.429V117.918H202.757Z" fill="currentColor"/>
<path fill-rule="evenodd" clip-rule="evenodd" d="M213.396 113.893C214.303 113.893 214.971 114.123 215.403 114.589C215.844 115.05 216.066 115.763 216.066 116.719V121.518H215.172V120.175C214.966 120.636 214.653 120.999 214.229 121.254C213.817 121.509 213.335 121.642 212.779 121.642C212.277 121.642 211.824 121.542 211.42 121.349C211.029 121.155 210.715 120.888 210.477 120.546C210.25 120.208 210.139 119.824 210.139 119.404C210.139 118.848 210.279 118.416 210.555 118.107C210.835 117.79 211.3 117.564 211.959 117.428C212.618 117.296 213.524 117.226 214.678 117.226H215.156V116.67C215.156 115.982 215.016 115.479 214.74 115.17C214.46 114.853 214.019 114.692 213.413 114.692C212.96 114.692 212.524 114.758 212.104 114.894C211.692 115.025 211.263 115.24 210.822 115.528L210.451 114.804C210.843 114.528 211.304 114.305 211.84 114.141C212.375 113.976 212.894 113.893 213.396 113.893ZM214.694 117.918C213.768 117.918 213.043 117.959 212.52 118.041C212.005 118.123 211.646 118.268 211.44 118.474C211.234 118.68 211.131 118.964 211.131 119.322C211.131 119.784 211.292 120.163 211.609 120.451C211.926 120.739 212.358 120.882 212.904 120.883C213.344 120.883 213.731 120.78 214.061 120.574C214.398 120.36 214.666 120.064 214.863 119.693C215.057 119.323 215.156 118.902 215.156 118.429V117.918H214.694Z" fill="currentColor"/>
<path d="M230.69 118.692C230.69 119.421 230.838 119.965 231.139 120.315C231.435 120.666 231.905 120.838 232.544 120.838C233.232 120.838 233.796 120.608 234.229 120.143C234.669 119.681 234.892 119.063 234.892 118.288V114.029H235.835V121.518H234.925V120.191C234.678 120.665 234.331 121.023 233.891 121.271C233.458 121.518 232.968 121.642 232.424 121.642H232.416C230.636 121.642 229.747 120.673 229.747 118.737V114.029H230.69V118.692Z" fill="currentColor"/>
<path fill-rule="evenodd" clip-rule="evenodd" d="M241.244 113.893C242.15 113.893 242.817 114.124 243.25 114.589C243.691 115.05 243.913 115.763 243.913 116.719V121.518H243.02V120.175C242.814 120.636 242.5 120.999 242.076 121.254C241.664 121.509 241.182 121.642 240.626 121.642C240.123 121.642 239.67 121.542 239.267 121.349C238.875 121.155 238.562 120.888 238.323 120.546C238.097 120.208 237.985 119.824 237.985 119.404C237.985 118.849 238.126 118.416 238.401 118.107C238.681 117.79 239.148 117.564 239.807 117.428C240.466 117.296 241.372 117.226 242.525 117.226H243.003V116.67C243.003 115.982 242.863 115.479 242.587 115.17C242.307 114.853 241.866 114.692 241.261 114.692C240.808 114.692 240.37 114.758 239.95 114.894C239.538 115.025 239.11 115.24 238.669 115.528L238.299 114.804C238.69 114.528 239.151 114.305 239.687 114.141C240.222 113.976 240.742 113.893 241.244 113.893ZM242.542 117.918C241.615 117.918 240.889 117.959 240.366 118.041C239.851 118.123 239.493 118.268 239.287 118.474C239.081 118.68 238.979 118.964 238.979 119.322C238.979 119.784 239.139 120.163 239.456 120.451C239.773 120.739 240.205 120.883 240.752 120.883C241.192 120.882 241.578 120.78 241.907 120.574C242.245 120.36 242.512 120.064 242.71 119.693C242.904 119.323 243.003 118.902 243.003 118.429V117.918H242.542Z" fill="currentColor"/>
<path fill-rule="evenodd" clip-rule="evenodd" d="M309.485 113.889C310.482 113.889 311.261 114.215 311.817 114.861C312.373 115.508 312.649 116.402 312.649 117.53V117.963H306.891C306.924 118.89 307.175 119.607 307.648 120.109C308.13 120.604 308.802 120.851 309.654 120.851C310.116 120.851 310.549 120.781 310.952 120.637C311.364 120.493 311.764 120.249 312.155 119.911L312.526 120.62C312.197 120.937 311.776 121.193 311.261 121.378C310.746 121.551 310.223 121.642 309.688 121.642H309.684C308.53 121.642 307.619 121.304 306.952 120.624C306.293 119.936 305.964 118.992 305.964 117.798C305.964 117.028 306.112 116.348 306.413 115.759C306.71 115.174 307.121 114.712 307.648 114.383C308.184 114.053 308.798 113.889 309.485 113.889ZM309.498 114.646C308.715 114.647 308.102 114.894 307.661 115.389C307.229 115.871 306.978 116.5 306.903 117.271H311.797C311.776 116.447 311.57 115.804 311.179 115.343C310.787 114.882 310.227 114.646 309.498 114.646Z" fill="currentColor"/>
<path fill-rule="evenodd" clip-rule="evenodd" d="M344.765 113.889C345.761 113.889 346.54 114.215 347.096 114.861C347.652 115.508 347.928 116.402 347.928 117.53V117.963H342.169C342.202 118.89 342.453 119.607 342.927 120.109C343.409 120.604 344.081 120.851 344.934 120.851C345.395 120.851 345.827 120.781 346.23 120.637C346.642 120.493 347.042 120.249 347.434 119.911L347.805 120.62C347.475 120.937 347.055 121.193 346.54 121.378C346.025 121.551 345.501 121.642 344.966 121.642H344.962C343.808 121.642 342.898 121.304 342.23 120.624C341.572 119.936 341.242 118.992 341.242 117.798C341.242 117.028 341.391 116.348 341.691 115.759C341.988 115.174 342.4 114.712 342.927 114.383C343.462 114.053 344.077 113.889 344.765 113.889ZM344.773 114.646C343.992 114.647 343.38 114.895 342.939 115.389C342.507 115.871 342.256 116.5 342.182 117.271H347.075C347.055 116.447 346.848 115.804 346.457 115.343C346.066 114.882 345.506 114.647 344.773 114.646Z" fill="currentColor"/>
<path fill-rule="evenodd" clip-rule="evenodd" d="M371.783 113.889C372.78 113.889 373.559 114.215 374.115 114.861C374.671 115.508 374.947 116.402 374.947 117.53V117.963H369.188C369.221 118.89 369.473 119.607 369.946 120.109C370.428 120.604 371.1 120.851 371.952 120.851C372.414 120.851 372.846 120.781 373.25 120.637C373.662 120.493 374.062 120.249 374.453 119.911L374.823 120.62C374.494 120.937 374.073 121.193 373.559 121.378C373.044 121.551 372.521 121.642 371.985 121.642H371.981C370.828 121.642 369.917 121.304 369.25 120.624C368.591 119.936 368.262 118.992 368.262 117.798C368.262 117.028 368.409 116.348 368.71 115.759C369.011 115.17 369.419 114.712 369.946 114.383C370.482 114.053 371.095 113.889 371.783 113.889ZM371.796 114.646C371.013 114.646 370.399 114.894 369.958 115.389C369.526 115.871 369.274 116.501 369.2 117.271H374.095C374.074 116.447 373.868 115.804 373.477 115.343C373.085 114.881 372.525 114.647 371.796 114.646Z" fill="currentColor"/>
<path fill-rule="evenodd" clip-rule="evenodd" d="M387.169 113.893C388.075 113.893 388.743 114.123 389.176 114.589C389.617 115.05 389.839 115.763 389.839 116.719V121.518H388.944V120.175C388.738 120.636 388.425 120.999 388.001 121.254C387.589 121.509 387.108 121.642 386.552 121.642C386.049 121.642 385.596 121.542 385.192 121.349C384.801 121.155 384.488 120.888 384.249 120.546C384.022 120.208 383.911 119.824 383.911 119.404C383.911 118.848 384.051 118.416 384.327 118.107C384.607 117.79 385.072 117.564 385.731 117.428C386.391 117.296 387.297 117.226 388.45 117.226H388.929V116.67C388.929 115.982 388.788 115.479 388.512 115.17C388.232 114.853 387.791 114.692 387.186 114.692C386.733 114.692 386.296 114.758 385.876 114.894C385.464 115.025 385.035 115.24 384.595 115.528L384.224 114.804C384.615 114.528 385.077 114.305 385.612 114.141C386.148 113.976 386.666 113.893 387.169 113.893ZM388.467 117.918C387.54 117.918 386.815 117.959 386.292 118.041C385.777 118.123 385.419 118.268 385.213 118.474C385.007 118.68 384.903 118.964 384.903 119.322C384.903 119.784 385.065 120.163 385.382 120.451C385.699 120.739 386.13 120.882 386.677 120.883C387.117 120.883 387.503 120.78 387.832 120.574C388.17 120.36 388.438 120.064 388.636 119.693C388.829 119.323 388.929 118.902 388.929 118.429V117.918H388.467Z" fill="currentColor"/>
<path d="M395.564 108.769C398.967 109.901 400.673 111.417 401.521 114.058C402.613 117.448 400.829 121.641 396.899 121.642C392.97 121.642 391.095 116.302 395.399 113.477C398.695 111.314 395.564 108.769 395.564 108.769Z" fill="currentColor"/>
<path fill-rule="evenodd" clip-rule="evenodd" d="M154.234 113.893C155.14 113.893 155.808 114.124 156.24 114.589C156.681 115.05 156.903 115.763 156.903 116.719V121.518H156.01V120.175C155.804 120.636 155.491 120.999 155.066 121.254C154.655 121.509 154.173 121.64 153.617 121.641C153.116 121.64 152.664 121.542 152.261 121.349C151.87 121.155 151.556 120.888 151.317 120.546C151.091 120.208 150.979 119.824 150.979 119.404C150.98 118.849 151.12 118.416 151.396 118.107C151.672 117.79 152.142 117.564 152.801 117.428C153.46 117.296 154.366 117.226 155.52 117.226H155.997V116.67C155.997 115.982 155.857 115.479 155.581 115.17C155.301 114.853 154.86 114.692 154.255 114.692C153.802 114.692 153.365 114.758 152.94 114.894C152.529 115.025 152.1 115.24 151.659 115.528L151.289 114.804C151.68 114.528 152.141 114.305 152.677 114.141C153.212 113.976 153.732 113.893 154.234 113.893ZM155.536 117.918C154.609 117.918 153.884 117.959 153.36 118.041C152.846 118.123 152.487 118.268 152.281 118.474C152.075 118.68 151.973 118.964 151.973 119.322C151.973 119.784 152.133 120.163 152.45 120.451C152.767 120.739 153.199 120.882 153.746 120.883C154.186 120.882 154.572 120.78 154.901 120.574C155.239 120.36 155.507 120.064 155.705 119.693C155.899 119.323 155.997 118.902 155.997 118.429V117.918H155.536Z" fill="currentColor"/>
<path fill-rule="evenodd" clip-rule="evenodd" d="M268.905 113.893C269.812 113.893 270.48 114.123 270.912 114.589C271.353 115.05 271.575 115.763 271.575 116.719V121.518H270.681V120.175C270.475 120.636 270.162 120.999 269.737 121.254C269.326 121.509 268.845 121.64 268.289 121.641C267.788 121.64 267.336 121.542 266.933 121.349C266.541 121.155 266.228 120.888 265.989 120.546C265.763 120.208 265.651 119.824 265.651 119.404C265.651 118.848 265.792 118.416 266.067 118.107C266.343 117.79 266.813 117.564 267.472 117.428C268.131 117.296 269.037 117.226 270.19 117.226H270.669V116.67C270.669 115.982 270.529 115.479 270.253 115.17C269.977 114.853 269.531 114.692 268.926 114.692C268.473 114.692 268.036 114.758 267.612 114.894C267.2 115.025 266.772 115.24 266.331 115.528L265.96 114.804C266.351 114.528 266.813 114.305 267.349 114.141C267.884 113.976 268.403 113.893 268.905 113.893ZM270.207 117.918C269.28 117.918 268.555 117.959 268.032 118.041C267.517 118.123 267.159 118.268 266.953 118.474C266.747 118.68 266.645 118.964 266.645 119.322C266.645 119.784 266.805 120.163 267.122 120.451C267.439 120.739 267.87 120.882 268.417 120.883C268.857 120.883 269.244 120.78 269.573 120.574C269.911 120.36 270.178 120.064 270.376 119.693C270.57 119.323 270.669 118.902 270.669 118.429V117.918H270.207Z" fill="currentColor"/>
<path fill-rule="evenodd" clip-rule="evenodd" d="M290.042 113.893C290.948 113.893 291.616 114.123 292.049 114.589C292.49 115.05 292.712 115.763 292.712 116.719V121.518H291.817V120.175C291.611 120.636 291.298 120.999 290.874 121.254C290.462 121.509 289.981 121.64 289.426 121.641C288.924 121.64 288.472 121.542 288.069 121.349C287.678 121.155 287.365 120.888 287.126 120.546C286.899 120.208 286.788 119.824 286.788 119.404C286.788 118.848 286.928 118.416 287.204 118.107C287.484 117.79 287.949 117.564 288.608 117.428C289.267 117.296 290.174 117.226 291.327 117.226H291.806V116.67C291.806 115.982 291.666 115.479 291.39 115.17C291.114 114.853 290.668 114.692 290.062 114.692C289.61 114.692 289.173 114.758 288.749 114.894C288.337 115.025 287.908 115.24 287.468 115.528L287.097 114.804C287.488 114.528 287.95 114.305 288.485 114.141C289.021 113.976 289.54 113.893 290.042 113.893ZM291.344 117.918C290.417 117.918 289.692 117.959 289.169 118.041C288.654 118.123 288.296 118.268 288.09 118.474C287.884 118.68 287.78 118.964 287.78 119.322C287.78 119.784 287.942 120.163 288.259 120.451C288.576 120.739 289.007 120.882 289.554 120.883C289.994 120.883 290.381 120.78 290.71 120.574C291.047 120.36 291.315 120.064 291.513 119.693C291.706 119.323 291.806 118.902 291.806 118.429V117.918H291.344Z" fill="currentColor"/>
<path fill-rule="evenodd" clip-rule="evenodd" d="M356.648 113.893C357.555 113.893 358.223 114.123 358.655 114.589C359.096 115.05 359.318 115.763 359.318 116.719V121.518H358.424V120.175C358.218 120.636 357.905 120.999 357.48 121.254C357.069 121.509 356.588 121.64 356.032 121.641C355.531 121.64 355.079 121.542 354.676 121.349C354.285 121.155 353.971 120.888 353.732 120.546C353.506 120.208 353.395 119.824 353.395 119.404C353.395 118.848 353.535 118.416 353.811 118.107C354.091 117.79 354.556 117.564 355.215 117.428C355.874 117.296 356.78 117.226 357.934 117.226H358.412V116.67C358.412 115.982 358.272 115.479 357.996 115.17C357.72 114.853 357.274 114.692 356.669 114.692C356.216 114.692 355.78 114.758 355.355 114.894C354.944 115.025 354.515 115.24 354.074 115.528L353.703 114.804C354.094 114.528 354.556 114.305 355.092 114.141C355.627 113.976 356.146 113.893 356.648 113.893ZM357.95 117.918C357.023 117.918 356.299 117.959 355.775 118.041C355.261 118.123 354.902 118.268 354.696 118.474C354.49 118.68 354.387 118.964 354.387 119.322C354.387 119.784 354.548 120.163 354.865 120.451C355.182 120.739 355.614 120.882 356.16 120.883C356.6 120.883 356.987 120.78 357.316 120.574C357.654 120.36 357.922 120.064 358.119 119.693C358.313 119.323 358.412 118.902 358.412 118.429V117.918H357.95Z" fill="currentColor"/>
<path d="M277.362 113.893C278.557 113.893 279.311 114.412 279.633 115.454C279.847 114.972 280.176 114.589 280.621 114.313C281.062 114.033 281.577 113.897 282.166 113.897C283.822 113.897 284.65 114.866 284.65 116.802V121.526H283.707V116.88C283.707 116.138 283.57 115.594 283.303 115.244C283.047 114.894 282.607 114.717 281.993 114.717C281.334 114.717 280.81 114.948 280.419 115.413C280.028 115.866 279.834 116.484 279.834 117.267V121.526H278.891V116.88C278.891 116.138 278.759 115.594 278.491 115.244C278.232 114.894 277.804 114.717 277.194 114.717C276.527 114.717 275.995 114.948 275.604 115.413C275.212 115.866 275.019 116.484 275.019 117.267V121.526H274.075L274.071 121.518V114.029H274.998V115.343C275.459 114.375 276.25 113.893 277.362 113.893Z" fill="currentColor"/>
<path d="M317.885 113.893C319.079 113.893 319.834 114.412 320.155 115.454C320.369 114.972 320.699 114.589 321.144 114.313C321.584 114.033 322.099 113.897 322.688 113.897C324.344 113.897 325.173 114.866 325.173 116.802V121.526H324.229V116.88C324.229 116.138 324.097 115.594 323.829 115.244C323.57 114.894 323.133 114.717 322.516 114.717C321.857 114.717 321.333 114.948 320.941 115.413C320.55 115.866 320.356 116.484 320.356 117.267V121.526H319.413V116.88C319.413 116.138 319.278 115.594 319.01 115.244C318.754 114.894 318.322 114.717 317.712 114.717C317.045 114.717 316.513 114.948 316.122 115.413C315.731 115.866 315.537 116.484 315.537 117.267V121.526H314.594L314.598 121.518V114.029H315.524V115.343C315.986 114.375 316.777 113.893 317.885 113.893Z" fill="currentColor"/>
<path d="M143.544 118.832L147.837 110.635H148.64V121.518H147.759V112.472L143.882 119.837H143.202L139.28 112.488V121.518H138.42V110.635H139.223L143.544 118.832Z" fill="currentColor"/>
<path d="M162.909 113.889C164.689 113.889 165.579 114.857 165.579 116.793V121.518H164.636V116.871C164.636 116.13 164.487 115.586 164.187 115.236C163.89 114.886 163.416 114.709 162.766 114.709C162.024 114.709 161.427 114.94 160.974 115.405C160.533 115.858 160.311 116.472 160.311 117.242V121.518H159.371V114.029H160.298V115.372C160.545 114.878 160.9 114.507 161.365 114.26C161.831 114.013 162.341 113.889 162.909 113.889Z" fill="currentColor"/>
<path d="M184.783 113.889C186.563 113.889 187.453 114.857 187.453 116.793V121.518H186.51V116.871C186.51 116.13 186.361 115.586 186.061 115.236C185.764 114.886 185.29 114.709 184.64 114.709C183.898 114.709 183.301 114.94 182.848 115.405C182.407 115.858 182.185 116.472 182.185 117.242V121.518H181.245V114.029H182.172V115.372C182.419 114.878 182.774 114.507 183.239 114.26C183.7 114.013 184.215 113.889 184.783 113.889Z" fill="currentColor"/>
<path d="M190.827 115.326C191.083 114.853 191.441 114.499 191.894 114.26C192.355 114.013 192.866 113.889 193.422 113.889C195.201 113.889 196.091 114.857 196.091 116.793V121.518H195.147V116.871C195.147 116.13 195 115.586 194.699 115.236C194.403 114.886 193.928 114.709 193.277 114.709C192.536 114.709 191.938 114.94 191.485 115.405C191.045 115.858 190.822 116.472 190.822 117.242V121.518H189.884V110.635H190.827V115.326Z" fill="currentColor"/>
<path d="M258.282 115.326C258.542 114.853 258.896 114.499 259.349 114.26C259.81 114.013 260.321 113.889 260.877 113.889C262.656 113.889 263.546 114.857 263.546 116.793V121.518H262.603V116.871C262.603 116.13 262.455 115.586 262.154 115.236C261.858 114.886 261.383 114.709 260.732 114.709C259.991 114.709 259.393 114.94 258.94 115.405C258.5 115.858 258.277 116.472 258.277 117.242V121.518H257.339V110.635H258.282V115.326Z" fill="currentColor"/>
<path d="M340.438 114.663L339.775 114.741C339.046 114.803 338.478 115.047 338.078 115.467C337.679 115.879 337.477 116.435 337.477 117.135V121.518H336.518V114.029H337.444V115.389C337.659 114.915 337.976 114.556 338.388 114.309C338.8 114.062 339.323 113.918 339.961 113.877L340.349 113.844L340.438 114.663Z" fill="currentColor"/>
<path d="M394.398 109.378C394.395 109.384 393.997 110.123 394.407 110.845C394.815 111.57 394.411 112.414 393.649 112.414C392.228 112.414 392.467 109.774 394.398 109.378Z" fill="currentColor"/>
<path d="M241.751 64.7158C247.403 70.6105 250.228 76.9502 250.229 83.7305C250.229 86.7788 249.516 89.5931 248.091 92.1719C246.666 94.7504 244.552 96.0399 241.751 96.04H229.738V95.5986C232.391 95.5986 234.393 94.334 235.744 91.8047C237.095 89.2755 237.771 86.5363 237.771 83.5869C237.771 80.2461 237.001 76.9624 235.452 73.7451C233.903 70.528 231.877 67.6647 229.372 65.1602V108.497H216.841V64.7158H241.751Z" fill="currentColor"/>
<path d="M396.891 104.386C396.244 105.597 396.891 107.784 396.891 107.784C394.722 106.101 396.855 104.414 396.891 104.386Z" fill="currentColor"/>
<path d="M166.65 96.1133H154.119V64.7158H166.65V96.1133Z" fill="currentColor"/>
<path d="M265.042 96.1133H252.511V64.7158H265.042V96.1133Z" fill="currentColor"/>
<path d="M206.299 64.7119C209.195 64.7119 211.16 65.5558 212.194 67.2529C213.228 68.9501 213.743 71.2207 213.743 74.0713V96.0352H201.212V72.8926C201.212 70.5322 200.77 68.7031 199.885 67.4014C199.003 66.0998 197.479 65.3501 195.316 65.1523C196.445 65.7908 197.196 66.7504 197.566 68.0273C197.933 69.3043 198.118 70.9029 198.118 72.8184V96.1094H185.587V72.8926C185.587 70.7342 185.352 69.0247 184.887 67.7725C184.421 66.5202 183.572 65.6465 182.345 65.1562V96.04H169.813V64.7158H206.299V64.7119Z" fill="currentColor"/>
<path d="M150.951 96.04H138.42V52.1846H150.951V96.04Z" fill="currentColor"/>
<path d="M335.207 96.04H309.853C307.051 95.9412 304.963 94.602 303.587 92.0234C302.211 89.4407 301.523 86.6064 301.523 83.5088C301.523 76.7283 304.275 70.4624 309.778 64.7158H322.31C319.854 67.1751 317.865 70.0961 316.341 73.4863C314.817 76.8765 314.055 80.2422 314.055 83.583C314.055 86.6312 314.78 89.3953 316.229 91.875C317.675 94.3588 319.825 95.5985 322.676 95.5986V52.1846H335.207V96.04Z" fill="currentColor"/>
<path d="M395.643 64.7119C400.405 64.7119 402.79 67.3195 402.79 72.5264V78.2764H390.263V72.4521C390.263 69.7994 389.884 67.9165 389.122 66.8125C388.36 65.7044 386.996 65.1523 385.031 65.1523V73.5557C385.031 75.912 385.497 77.6098 386.432 78.6396C387.363 79.6735 388.936 80.1884 391.148 80.1885H395.573C400.384 80.1886 402.794 82.6227 402.794 87.4873V96.0352H378.914C376.801 96.0352 375.19 95.3971 374.086 94.1201C372.978 92.8431 372.426 91.0016 372.426 88.5918V82.4746H384.957V89.1064C384.957 91.4174 385.349 93.0779 386.136 94.083C386.923 95.092 388.298 95.5947 390.263 95.5947V87.1914C390.263 84.7857 389.781 83.0631 388.825 82.0332C387.865 80.9994 386.234 80.4844 383.923 80.4844H379.206C374.832 80.4842 372.599 78.227 372.5 73.7041V64.7119H395.643Z" fill="currentColor"/>
<path d="M285.824 64.7119C289.363 65.3546 292.151 67.4763 294.19 71.0889V71.0801C296.23 74.6928 297.655 78.6724 298.467 83.0225C299.278 87.3724 299.806 91.706 300.053 96.0312H275.657C273.054 96.0312 271.027 95.3807 269.577 94.0791C268.127 92.7775 267.402 90.9977 267.402 88.7363C267.402 86.9691 267.806 85.0035 268.617 82.8408C269.429 80.6783 270.471 78.7384 271.748 77.0166H284.205C281.404 81.5394 280.003 85.5185 280.003 88.958C280.003 91.1207 280.654 92.7687 281.956 93.8975C283.258 95.0302 285.112 95.5947 287.521 95.5947C287.274 90.3878 286.722 85.6047 285.861 81.2588C285 76.9089 283.389 73.1399 281.033 69.9434C278.677 66.7509 275.361 65.1524 271.085 65.1523V64.7119H285.824Z" fill="currentColor"/>
<path d="M355.915 64.7119C359.454 65.3545 362.243 67.4762 364.282 71.0889V71.0801C366.321 74.6928 367.746 78.6724 368.558 83.0225C369.369 87.3725 369.896 91.706 370.144 96.0312H345.749C343.146 96.0312 341.119 95.3806 339.669 94.0791C338.219 92.7775 337.493 90.9977 337.493 88.7363C337.493 86.9691 337.897 85.0035 338.709 82.8408C339.516 80.6783 340.563 78.7384 341.84 77.0166H354.297C351.496 81.5395 350.095 85.5184 350.095 88.958C350.095 91.1205 350.745 92.7688 352.047 93.8975C353.349 95.0302 355.203 95.5947 357.612 95.5947C357.365 90.3878 356.813 85.6047 355.952 81.2588C355.091 76.909 353.481 73.1398 351.125 69.9434C348.769 66.7508 345.452 65.1523 341.176 65.1523V64.7119H355.915Z" fill="currentColor"/>
<path d="M258.624 63.8838H256.609L258.093 58.1416H262.352L258.624 63.8838Z" fill="currentColor"/>
<path d="M166.65 62.1328H154.119V52.1846H166.65V62.1328Z" fill="currentColor"/>
<path d="M280.736 13.5283C286.388 19.4231 289.214 25.7626 289.214 32.543C289.214 35.5913 288.501 38.4056 287.076 40.9844C285.651 43.5628 283.537 44.8516 280.736 44.8516H268.725V44.4111C271.377 44.4111 273.379 43.1464 274.73 40.6172C276.082 38.088 276.757 35.3487 276.757 32.3994C276.757 29.0586 275.987 25.7749 274.438 22.5576C272.89 19.3404 270.862 16.4772 268.357 13.9727V57.3086H255.826V13.5283H280.736Z" fill="currentColor"/>
<path d="M245.289 13.5283C248.185 13.5283 250.15 14.3725 251.184 16.0693C252.218 17.7665 252.733 20.0371 252.733 22.8877V44.8516H240.202V21.709C240.202 19.3487 239.761 17.5195 238.875 16.2178C237.993 14.9163 236.469 14.1665 234.307 13.9688C235.435 14.6073 236.185 15.5677 236.556 16.8447C236.922 18.1216 237.108 19.7196 237.108 21.6348V44.9258H224.577V21.709C224.577 19.5506 224.342 17.8411 223.877 16.5889C223.411 15.3366 222.563 14.4629 221.335 13.9727V44.8516H208.804V13.5283H245.289Z" fill="currentColor"/>
<path d="M161.048 1.00098C164.537 1.00104 167.313 2.35243 169.377 5.05469C171.441 7.757 172.475 11.3162 172.475 15.8887C172.475 20.4611 171.441 24.1937 169.377 27.0938C167.313 29.9936 164.635 31.4434 161.344 31.4434H151.763V30.998C154.218 30.3101 156.22 28.5429 157.769 25.6924C159.313 22.8418 160.088 19.5259 160.088 15.7402C160.088 11.6126 159.227 8.19744 157.509 5.49512C155.791 2.79303 153.604 1.44147 150.951 1.44141V44.8564H138.42V1.00098H161.048Z" fill="currentColor"/>
<path fill-rule="evenodd" clip-rule="evenodd" d="M198.859 13.5322C201.463 13.5322 203.391 14.5746 204.644 16.6631C205.896 18.7516 206.521 21.957 206.521 26.2822C206.521 31.1472 205.64 37.3388 203.869 44.8564H180.874C175.762 44.8563 173.208 40.6088 173.208 32.1064C173.208 27.3403 174.094 21.1489 175.861 13.5322H198.859ZM188.393 13.9688C186.625 21.6347 185.739 27.8015 185.739 32.4688C185.739 35.9579 186.229 38.7474 187.214 40.8359C188.198 42.9243 189.575 44.1145 191.342 44.4111C193.109 36.9429 193.994 30.8256 193.994 26.0596C193.994 22.5252 193.488 19.6992 192.482 17.5859C191.473 15.4728 190.11 14.2694 188.393 13.9727V13.9688Z" fill="currentColor"/>
<path fill-rule="evenodd" clip-rule="evenodd" d="M316.341 13.5322C318.944 13.5323 320.872 14.5747 322.124 16.6631C323.376 18.7516 324.003 21.9569 324.003 26.2822C324.003 31.1472 323.121 37.3388 321.35 44.8564H298.359C293.247 44.8564 290.693 40.6089 290.693 32.1064C290.693 27.3403 291.579 21.1489 293.346 13.5322H316.341ZM305.873 13.9688C304.106 21.6347 303.22 27.8015 303.22 32.4688C303.22 35.9579 303.711 38.7474 304.695 40.8359C305.68 42.9241 307.055 44.1145 308.822 44.4111C310.589 36.9428 311.476 30.8257 311.476 26.0596C311.476 22.5253 310.969 19.6992 309.964 17.5859C308.955 15.4727 307.591 14.2693 305.873 13.9727V13.9688Z" fill="currentColor"/>
</svg>
